<svg data-name="Layer 1" xmlns="http://www.w3.org/2000/svg" xmlns:xlink="http://www.w3.org/1999/xlink" width="960.2" height="727.9"><defs><linearGradient id="a" x1="224.9" y1="440.3" x2="438.9" y2="440.3" gradientUnits="userSpaceOnUse"><stop offset="0" stop-color="gray" stop-opacity=".3"/><stop offset=".5" stop-color="gray" stop-opacity=".1"/><stop offset="1" stop-color="gray" stop-opacity=".1"/></linearGradient><linearGradient id="b" x1="636.8" y1="740.5" x2="636.8" y2="204.8" xlink:href="#a"/></defs><ellipse cx="516.6" cy="627.9" rx="350" ry="100" fill="#f5f5f5"/><path d="M850 239s-62 62-27 154-60 245-60 245l2-1a181 181 0 00120-276c-26-40-48-87-35-122z" fill="#00bfa6"/><path d="M850 239s-35 76 0 138 6 236-87 261" fill="none" stroke="#535461" stroke-miterlimit="10" stroke-width="2"/><path d="M960 490s-71-12-77 52-136 72-136 72l2 2c107 70 210 44 194-49-6-35-5-69 17-77z" fill="#00bfa6"/><path d="M960 490s-71-12-77 52-136 72-136 72l2 2c107 70 210 44 194-49-6-35-5-69 17-77z" fill="#f5f5f5" opacity=".2"/><path d="M960 490s-55 12-50 62-82 109-163 62" fill="none" stroke="#535461" stroke-miterlimit="10" stroke-width="2"/><path d="M151 0c-8 0-16 0-23 3-21 8-31 33-28 54s17 41 30 58 28 35 36 55c3 11 5 22 1 32-5 16-23 25-40 27s-33-2-50-3c-7 0-15-1-21 2-8 2-14 7-19 13-22 21-40 50-37 80 3 34 32 61 63 76 11 5 22 9 31 15 24 19 29 53 27 83s-11 60-6 89c5 35 29 66 60 81 29 13 64 12 89-6 13-9 22-22 30-35a296 296 0 0030-61c3-11 6-22 15-29 5-4 11-7 17-9 20-6 40-7 60-12s39-15 49-32c15-25 8-56 8-84 0-65 39-124 54-187 5-21 6-44-4-62-7-13-19-22-32-29-28-16-59-22-90-29-44-9-96-11-130-41-32-28-76-49-120-49z" fill="#00bfa6" opacity=".2"/><path d="M428 338a151 151 0 00-7-46l-12-37v-2c0-24-18-36-26-34-7 1-27-9-27-9a38 38 0 01-4-5 33 33 0 007-46 14 14 0 005-7c1-4 0-10-3-14a27 27 0 00-4-5 51 51 0 00-7-6c-7-4-14-8-22-10a9 9 0 00-4 0 17 17 0 00-4 2c-5 3-12 2-18 1s-14 2-16 8l-1 6c-1 4-5 8-8 12s-5 9-2 13l2 4-1 3c-1 3 0 5 2 7a11 11 0 003 2l10 4a17 17 0 015 3 17 17 0 015 12v1h2a33 33 0 004 5l-1 3c-2 1-21 14-43 11-24-3-37 99-37 99a117 117 0 00-1 17c0 15 3 35 20 32l10-3v50s1 14-4 23 15 6 15 6l2 2v2a132 132 0 01-10 25l1 1-1 1 17 8c8 27 26 89 20 101 1 2 7 15 6 27-1 11 14 60 19 78h-3l10 34-2 21s-12 31 15 25 19-31 19-31l1-49-6-3c-2-6-7-20-7-29 0-13-8-67-8-67v-1-3c-1-14-4-64-2-90a58 58 0 016-3c6 16 23 61 22 79v33l-1 13v12l-4-1-1 9a90 90 0 005 39l3 7v27s4 31 23 25c8-3 12-11 14-19a47 47 0 00-2-28c-3-7-6-16-4-23 4-13 4-31 4-31h-2a33 33 0 001-3s-1-45 5-51c4-4 3-11 2-18a120 120 0 01-1-28l2-10c2-4 3-39-4-56h1v-2a98 98 0 004 10 4 4 0 002 0c21-3 22-24 21-35l1 1 2-29c2-5 3-10 3-17 0-23-11-53-11-53zm-24 83l-3-25-10-35v-13l16 59z" transform="translate(-120 -86)" fill="url(#a)" opacity=".5"/><path d="M239 529v8a89 89 0 004 38l3 7v27s4 30 22 24c8-3 12-11 14-18a46 46 0 00-3-28c-2-7-5-16-3-23 3-12 3-29 3-29z" fill="#5a5773"/><path d="M220 389s25 61 24 84v2c0-5 0 56-2 63 0 0 26 19 37-7 0 0-1-44 5-50 3-3 3-11 2-17a118 118 0 01-1-27l1-10c2-4 4-48-7-60z" fill="#605d82"/><path d="M245 538c2-7 3-68 2-63v-2c1-22-24-84-24-84l56-21v-1l-59 22s25 61 24 84v2c0-5 0 56-2 63 0 0 10 8 21 7-9-1-18-7-18-7z" opacity=".1"/><path d="M198 587l9 33-2 21s-11 30 15 24 19-29 19-29v-49s-10-5-14-5l-27 5z" fill="#5a5773"/><path d="M154 374s29 96 22 110a600 600 0 0026 109l33-6s-8-19-8-31-8-65-8-65-7-97 1-107z" fill="#605d82"/><g opacity=".1"><path d="M218 392a624 624 0 0015 196l2-1s-8-19-8-31-8-65-8-65-6-74-1-99zM176 484l1 1v-1a7 7 0 01-1 0zM219 387a9 9 0 011-3l-66-10 1 3z"/></g><path d="M308 339s10 36-19 41a4 4 0 01-1 0s-17-33-4-46zM190 100s2 27-19 40 45 48 45 48l34-55s-14 2-23-24z" fill="#a1616a"/><path d="M176 142s33 68 62 4l46 226s-71 22-72 32-71-26-71-26 15-29 12-46 23-190 23-190z" opacity=".1"/><path d="M176 140s33 69 62 4l46 227s-71 22-72 32-71-27-71-27 15-28 12-45 23-191 23-191z" fill="#e1e7ef"/><path d="M208 605s-8-18 11-18 16 16 16 16zM252 557s-8-20 11-20 10 18 10 18z" fill="#5a5773"/><path d="M235 126s20 10 27 9 26 11 24 35l12 36a149 149 0 017 46s17 46 8 67l-2 28s-15-9-30-6l3-23-17-66-29-70z" opacity=".1"/><path d="M235 125s20 10 27 8 26 11 24 36l12 36a149 149 0 017 45s17 47 8 67l-2 29s-15-9-30-6l3-23-17-66-29-70z" fill="#67647e"/><path d="M268 203v72l9 35s7 38 5 50-33 14-41 4-4-92-4-92l-2-120 1-4z" opacity=".1"/><path d="M269 200v72l10 35s6 38 4 50-33 14-41 4-4-92-4-92l-1-121z" fill="#67647e"/><path d="M139 260l21 64-10 27s46 49 75 25c0 0 3-98-3-121s-38-101-38-101l-6-21-34 20z" opacity=".1"/><path d="M138 257v63s1 13-3 22 14 6 14 6 45 48 74 25c0 0 4-98-3-121s-37-101-37-101l-7-21-34 19z" fill="#67647e"/><path d="M188 119s-20 14-43 11-35 97-35 97-8 51 19 47l60-20s-13-14-11-31l-29 11 1-55z" opacity=".1"/><path d="M111 225s-8 52 19 47l60-20s-13-13-11-31l-29 12z" opacity=".1"/><path d="M178 228s20-26 34-13-29 35-29 35z" fill="#a1616a"/><path d="M188 118s-20 14-43 11-35 96-35 96-8 52 19 47l60-20s-13-13-11-31l-29 12 1-55 33-27z" fill="#67647e"/><path d="M227 110l-36-9s1 2-1 11c6 7 13 16 23 16a32 32 0 0019-7 58 58 0 01-5-11z" opacity=".1"/><circle cx="212.4" cy="94.1" r="32.2" fill="#a1616a"/><path d="M225 80c7-1 15-4 18-12 1-4 0-9-3-13l-10-10c-6-5-13-9-21-10a9 9 0 00-4 0 17 17 0 00-4 2c-5 3-11 1-18 1s-13 1-15 7l-1 6c-1 4-4 8-7 12s-5 8-2 12l2 5a13 13 0 01-1 3c-1 3 1 6 4 8l10 4a17 17 0 0110 15c2 1 6 1 8-1l2-4 4-3c6-5 2-13 5-19 2-3 6-2 9-2a74 74 0 0014-1z" opacity=".1"/><path d="M224 80c7-2 16-5 18-12 2-5 0-10-2-14s-7-7-11-10c-6-5-13-8-21-10a9 9 0 00-4 0 17 17 0 00-3 2c-5 3-12 2-18 1s-14 2-16 8l-1 5c-1 5-4 8-7 12s-4 9-2 13l2 4a13 13 0 01-1 3c-1 3 2 7 5 8l10 4a17 17 0 019 16c3 0 6 0 8-2l2-3 4-3c7-6 2-13 6-19 2-3 5-3 8-2a74 74 0 0014-1z" fill="#4a4347"/><path d="M263 188s7 36 4 50a47 47 0 001 25M149 203s-4 25 2 30" opacity=".1"/><path d="M328 504a2 2 0 000-3 2 2 0 000 3z"/><path d="M910 416v-1L637 205a1 1 0 00-1 0L363 415v325h1v1h547V415z" transform="translate(-120 -86)" fill="url(#b)" opacity=".5"/><path fill="#fff" d="M781 645H253V331l264-203 264 203v314z"/><path fill="#e0e0e0" d="M762 626H272V335l245-189 245 189v291z"/><path fill="#00bfa6" d="M301 220l299-78 99 380-299 79z"/><path fill="#f5f5f5" d="M364 200h309v393H364z"/><path opacity=".1" d="M255 331l264 157-264 157V331z"/><path fill="#fff" d="M253 331l264 157-264 157V331z"/><path opacity=".1" d="M779 331L515 488l264 157V331z"/><path fill="#fff" d="M781 331L517 488l264 157V331z"/><path opacity=".1" d="M253 640l264-206 264 206H253z"/><path fill="#fff" d="M253 645l264-206 264 206H253z"/><path d="M307 669s-14-45 2-78a71 71 0 006-45 120 120 0 00-6-20" fill="none" stroke="#535461" stroke-miterlimit="10" stroke-width="2"/><path d="M318 505c0 5-10 21-10 21s-10-16-10-21a10 10 0 1120 0zM335 535c-3 5-20 13-20 13s0-19 3-24a10 10 0 0117 11zM334 587c-5 3-23 1-23 1s9-16 14-18a10 10 0 119 17zM325 627c-5 3-23 5-23 5s6-18 11-21a10 10 0 0112 16zM294 549c4 4 22 8 22 8s-4-19-8-22a10 10 0 00-14 14zM283 595c5 3 24 1 24 1s-10-16-15-19a10 10 0 00-9 18zM279 641c5 4 24 5 24 5s-7-17-12-21a10 10 0 10-12 16z" fill="#00bfa6"/><path fill="#00bfa6" opacity=".5" d="M382 218h124v10H382zM382 258h268v10H382zM382 284h268v10H382z"/><path fill="#00bfa6" opacity=".4" d="M382 310h268v10H382zM382 336h268v10H382z"/><path fill="#00bfa6" opacity=".3" d="M382 362h153v10H382zM382 388h209v10H382z"/></svg>