<?xml version="1.0" standalone="no"?>
<!DOCTYPE svg PUBLIC "-//W3C//DTD SVG 20010904//EN"
 "http://www.w3.org/TR/2001/REC-SVG-20010904/DTD/svg10.dtd">
<svg version="1.0" xmlns="http://www.w3.org/2000/svg"
 width="640.000000pt" height="640.000000pt" viewBox="0 0 640.000000 640.000000"
 preserveAspectRatio="xMidYMid meet">
<metadata>
Created by potrace 1.11, written by Peter Selinger 2001-2013
</metadata>
<g transform="translate(0.000000,640.000000) scale(0.100000,-0.100000)"
fill="#000000" stroke="none">
<path d="M3007 6394 c-1 -1 -40 -5 -87 -8 -128 -10 -171 -16 -182 -22 -5 -3
-34 -8 -65 -10 -31 -2 -61 -8 -68 -14 -6 -5 -14 -7 -17 -5 -8 9 -246 -47 -308
-72 -8 -3 -21 -7 -27 -9 -25 -5 -148 -46 -178 -59 -16 -7 -62 -25 -102 -41
-39 -16 -69 -33 -66 -38 4 -5 1 -6 -5 -2 -11 6 -84 -23 -90 -36 -2 -5 -10 -8
-18 -8 -17 0 -56 -21 -66 -35 -4 -5 -8 -6 -8 -1 0 5 -6 3 -14 -3 -7 -6 -35
-23 -62 -37 -27 -14 -52 -31 -56 -38 -4 -6 -8 -8 -8 -3 0 4 -30 -12 -67 -35
-87 -54 -113 -74 -108 -82 3 -3 2 -4 -1 -1 -8 6 -64 -27 -64 -37 0 -4 -6 -8
-13 -8 -7 0 -27 -13 -45 -30 -18 -16 -36 -30 -40 -30 -4 0 -29 -21 -57 -45
-27 -25 -54 -45 -59 -45 -4 0 -6 -7 -3 -14 4 -10 1 -13 -7 -10 -8 3 -23 -6
-34 -20 -11 -14 -23 -26 -27 -26 -8 0 -184 -177 -253 -255 -30 -33 -62 -70
-73 -81 -10 -12 -19 -27 -19 -33 0 -6 -4 -11 -8 -11 -16 0 -163 -206 -165
-231 -1 -10 -5 -16 -9 -13 -7 5 -35 -35 -74 -106 -10 -19 -22 -36 -26 -38 -5
-2 -8 -8 -8 -13 0 -5 -18 -42 -40 -81 -23 -39 -38 -78 -36 -85 3 -8 1 -11 -4
-8 -6 4 -18 -11 -26 -32 -9 -21 -27 -63 -41 -93 -47 -102 -94 -234 -88 -247 2
-8 1 -12 -3 -9 -11 7 -55 -131 -46 -146 4 -6 3 -8 -3 -5 -6 4 -15 -18 -23 -51
-7 -31 -12 -58 -12 -59 1 -2 -5 -20 -13 -42 -10 -29 -11 -42 -2 -51 9 -10 9
-11 0 -6 -11 6 -16 -9 -28 -84 -3 -19 -10 -60 -15 -90 -5 -30 -12 -80 -15
-110 -4 -30 -8 -61 -10 -67 -3 -7 1 -13 8 -13 8 0 9 -3 1 -8 -14 -9 -13 0 -18
-242 -3 -150 -1 -207 7 -212 9 -6 9 -8 0 -8 -6 0 -10 -10 -8 -22 2 -13 6 -59
10 -103 7 -103 26 -237 41 -297 1 -5 2 -20 3 -34 0 -14 5 -23 10 -20 5 4 7 -2
4 -12 -4 -16 22 -135 47 -217 6 -16 21 -68 35 -115 25 -80 105 -292 125 -328
5 -10 28 -57 52 -107 23 -49 61 -121 83 -160 23 -38 44 -78 48 -88 4 -11 12
-15 18 -11 7 4 9 3 6 -3 -7 -10 78 -145 95 -151 4 -2 8 -8 8 -14 0 -19 124
-177 218 -276 23 -25 42 -47 42 -50 0 -11 221 -222 315 -301 87 -72 124 -101
133 -101 6 0 12 -4 14 -8 8 -22 379 -252 406 -252 6 0 12 -4 14 -8 6 -15 159
-83 171 -76 7 4 8 3 4 -1 -10 -11 81 -48 95 -39 6 4 8 2 5 -3 -9 -14 256 -110
316 -115 15 -1 27 -5 27 -9 0 -6 33 -15 85 -25 6 -1 12 -3 15 -4 3 -1 14 -3
25 -5 11 -2 49 -10 85 -18 36 -9 87 -18 114 -22 27 -3 52 -8 56 -10 3 -2 36
-7 72 -10 35 -4 78 -8 94 -11 60 -8 463 -12 544 -4 159 15 207 21 231 26 13 3
42 7 64 10 22 2 47 7 55 10 8 3 31 8 50 10 19 3 43 7 52 10 9 3 25 7 35 9 60
12 215 55 228 63 6 4 19 8 29 9 37 6 182 61 311 119 17 7 49 21 73 30 23 10
42 22 42 28 0 5 3 7 6 4 7 -8 135 59 150 78 6 8 13 12 15 9 3 -2 29 11 59 30
30 19 72 44 93 55 21 11 35 24 33 29 -3 4 1 8 8 8 17 0 112 64 162 111 14 12
28 22 33 22 4 0 24 16 45 35 21 19 42 35 46 35 4 0 28 22 54 50 26 27 49 50
53 50 8 0 180 176 249 255 112 130 175 215 168 227 -4 6 -3 8 3 5 10 -7 140
181 173 248 8 16 17 32 20 35 26 20 183 357 174 371 -3 5 -1 9 4 9 14 0 75
177 66 191 -4 7 -3 10 4 5 7 -4 15 9 22 36 6 24 15 54 20 68 14 35 71 276 69
286 -1 5 1 17 6 27 4 9 5 28 3 42 -3 13 -1 22 3 19 5 -3 9 5 10 18 0 13 2 32
5 43 2 11 6 47 9 80 4 33 9 71 11 85 8 36 13 473 6 485 -3 5 -5 29 -3 53 2 34
0 43 -11 37 -10 -6 -10 -5 -1 5 11 12 9 65 -4 100 -3 8 -5 34 -5 58 0 23 -4
42 -9 42 -6 0 -7 4 -4 10 9 14 -45 283 -74 370 -5 14 -19 60 -31 102 -13 42
-27 75 -32 72 -4 -3 -5 2 -2 10 5 12 -69 215 -96 264 -5 10 -28 58 -51 107
-23 50 -50 101 -59 115 -10 14 -30 50 -46 80 -47 89 -146 230 -157 223 -6 -3
-7 -1 -3 6 9 14 -32 74 -45 66 -5 -4 -6 1 -3 9 4 9 -1 18 -10 22 -9 3 -16 12
-16 19 0 7 -4 15 -8 17 -4 2 -23 22 -41 45 -19 23 -38 40 -44 36 -6 -3 -7 -1
-4 4 10 17 -199 247 -215 237 -5 -3 -7 -2 -6 3 4 12 -34 53 -49 53 -7 0 -13 4
-13 10 0 12 -43 51 -130 120 -36 28 -73 58 -83 66 -10 8 -23 12 -29 8 -6 -4
-8 -3 -4 4 6 11 -43 52 -63 52 -6 0 -11 4 -11 8 0 8 -53 42 -67 44 -5 0 -13 8
-20 17 -6 9 -33 27 -60 41 -26 14 -50 28 -53 31 -7 9 -69 40 -73 37 -1 -2 -13
7 -26 19 -13 12 -27 20 -32 18 -4 -3 -14 1 -21 9 -26 25 -256 128 -269 120 -5
-3 -9 -1 -9 4 0 12 -168 75 -285 107 -152 41 -252 67 -280 71 -16 3 -68 12
-113 20 -46 9 -103 17 -125 19 -95 7 -204 17 -229 20 -17 2 -28 -2 -28 -8 0
-9 -2 -9 -8 0 -5 8 -53 11 -165 10 -87 0 -159 -2 -160 -3z m1480 -949 c0 -8
-4 -12 -9 -9 -5 3 -6 10 -3 15 9 13 12 11 12 -6z m-322 -5 c3 -5 1 -10 -4 -10
-6 0 -11 5 -11 10 0 6 2 10 4 10 3 0 8 -4 11 -10z m645 6 c0 -3 -4 -8 -10 -11
-5 -3 -10 -1 -10 4 0 6 5 11 10 11 6 0 10 -2 10 -4z m-3840 -1926 c0 -5 -5
-10 -11 -10 -5 0 -7 5 -4 10 3 6 8 10 11 10 2 0 4 -4 4 -10z m4153 -635 c-3
-9 -8 -14 -10 -11 -3 3 -2 9 2 15 9 16 15 13 8 -4z m0 -320 c-3 -9 -8 -14 -10
-11 -3 3 -2 9 2 15 9 16 15 13 8 -4z m-4158 -965 c3 -5 1 -10 -4 -10 -6 0 -11
5 -11 10 0 6 2 10 4 10 3 0 8 -4 11 -10z m2720 -1120 c3 -5 1 -10 -4 -10 -6 0
-11 5 -11 10 0 6 2 10 4 10 3 0 8 -4 11 -10z"/>
</g>
</svg>
